<svg xmlns="http://www.w3.org/2000/svg" viewBox="0 0 100 100">
  <defs>
    <linearGradient id="bg" x1="0%" y1="0%" x2="0%" y2="100%">
      <stop offset="0%" style="stop-color:#5B9FEE"/>
      <stop offset="100%" style="stop-color:#3B7DD8"/>
    </linearGradient>
  </defs>
  <circle cx="50" cy="50" r="46" fill="url(#bg)" stroke="none"/>
  <circle cx="50" cy="50" r="46" fill="rgba(255,255,255,0.12)" stroke="none"/>
  <path d="M62.5 56.5c-1.8-1.8-4-1.8-5.8 0l-2.5 2.5c-.2.2-.5.2-.7.1-2.5-1.5-4.8-3.4-6.8-5.4s-3.9-4.3-5.4-6.8c-.1-.2-.1-.5.1-.7l2.5-2.5c1.8-1.8 1.8-4 0-5.8l-3.5-3.5c-1.8-1.8-4-1.8-5.8 0l-1.8 1.8c-2.2 2.2-3 5.4-2.2 8.5 1.5 5.8 5.2 11.5 10.5 16.8s11 9 16.8 10.5c3.1.8 6.3 0 8.5-2.2l1.8-1.8c1.8-1.8 1.8-4 0-5.8l-3.5-3.5z" fill="white" opacity="0.95"/>
  <path d="M56 36c1.2.3 2.3.8 3.3 1.5M62 40.5c.7 1 1.2 2.1 1.5 3.3M55 31c2 .4 3.8 1.3 5.3 2.5M64 37c1.2 1.5 2.1 3.3 2.5 5.3" stroke="white" stroke-width="2.5" stroke-linecap="round" fill="none" opacity="0.8"/>
</svg>
